<svg width="40" height="40" viewBox="0 0 40 40" fill="none" xmlns="http://www.w3.org/2000/svg">
<circle cx="20" cy="20" r="19.5" fill="white" stroke="black"/>
<path d="M17.8122 16.7273H18.6929V21.9261C18.6929 22.3902 18.6077 22.7843 18.4372 23.1087C18.2668 23.433 18.0265 23.6792 17.7164 23.8473C17.4062 24.0154 17.0405 24.0994 16.6191 24.0994C16.2213 24.0994 15.8674 24.0272 15.5573 23.8828C15.2471 23.736 15.0033 23.5277 14.8257 23.2578C14.6482 22.9879 14.5594 22.6671 14.5594 22.2955H15.4259C15.4259 22.5014 15.4768 22.6813 15.5786 22.8352C15.6827 22.9867 15.8248 23.1051 16.0047 23.1903C16.1846 23.2756 16.3894 23.3182 16.6191 23.3182C16.8724 23.3182 17.0878 23.2649 17.2654 23.1584C17.4429 23.0518 17.5779 22.8956 17.6702 22.6896C17.7649 22.4813 17.8122 22.2268 17.8122 21.9261V16.7273ZM26.3101 19H25.4294C25.3773 18.7467 25.2862 18.5241 25.156 18.3324C25.0281 18.1406 24.8719 17.9796 24.6872 17.8494C24.5049 17.7169 24.3025 17.6174 24.08 17.5511C23.8575 17.4848 23.6254 17.4517 23.384 17.4517C22.9436 17.4517 22.5447 17.563 22.1872 17.7855C21.8321 18.008 21.5492 18.3359 21.3385 18.7692C21.1302 19.2024 21.026 19.7339 21.026 20.3636C21.026 20.9934 21.1302 21.5249 21.3385 21.9581C21.5492 22.3913 21.8321 22.7192 22.1872 22.9418C22.5447 23.1643 22.9436 23.2756 23.384 23.2756C23.6254 23.2756 23.8575 23.2424 24.08 23.1761C24.3025 23.1098 24.5049 23.0116 24.6872 22.8814C24.8719 22.7488 25.0281 22.5866 25.156 22.3949C25.2862 22.2008 25.3773 21.9782 25.4294 21.7273H26.3101C26.2438 22.099 26.1231 22.4316 25.9479 22.7251C25.7727 23.0187 25.5549 23.2685 25.2945 23.4744C25.0341 23.678 24.7417 23.8331 24.4173 23.9396C24.0954 24.0462 23.7509 24.0994 23.384 24.0994C22.7637 24.0994 22.2121 23.9479 21.7291 23.6449C21.2462 23.3419 20.8662 22.911 20.5892 22.3523C20.3122 21.7936 20.1737 21.1307 20.1737 20.3636C20.1737 19.5966 20.3122 18.9337 20.5892 18.375C20.8662 17.8163 21.2462 17.3854 21.7291 17.0824C22.2121 16.7794 22.7637 16.6278 23.384 16.6278C23.7509 16.6278 24.0954 16.6811 24.4173 16.7876C24.7417 16.8942 25.0341 17.0504 25.2945 17.2564C25.5549 17.46 25.7727 17.7086 25.9479 18.0021C26.1231 18.2933 26.2438 18.6259 26.3101 19Z" fill="black"/>
</svg>
